<?xml version="1.0" encoding="UTF-8" standalone="no"?>
<!DOCTYPE svg PUBLIC "-//W3C//DTD SVG 1.1//EN"
 "http://www.w3.org/Graphics/SVG/1.1/DTD/svg11.dtd">
<!-- Generated by graphviz version 14.1.1 (20251213.1925)
 -->
<!-- Title: InheritanceTree Pages: 1 -->
<svg width="413pt" height="861pt"
 viewBox="0.00 0.00 413.00 861.00" xmlns="http://www.w3.org/2000/svg" xmlns:xlink="http://www.w3.org/1999/xlink">
<g id="graph0" class="graph" transform="scale(1 1) rotate(0) translate(4 856.5)">
<title>InheritanceTree</title>
<polygon fill="white" stroke="none" points="-4,4 -4,-856.5 408.75,-856.5 408.75,4 -4,4"/>
<text xml:space="preserve" text-anchor="middle" x="202.38" y="-7.2" font-family="Times New Roman,serif" font-size="14.00">simple_docker &#45; Inheritance Hierarchy</text>
<!-- CONTAINER_SPEC -->
<g id="node1" class="node">
<title>CONTAINER_SPEC</title>
<path fill="none" stroke="black" d="M142.38,-60.5C142.38,-60.5 34.12,-60.5 34.12,-60.5 28.12,-60.5 22.12,-54.5 22.12,-48.5 22.12,-48.5 22.12,-36.5 22.12,-36.5 22.12,-30.5 28.12,-24.5 34.12,-24.5 34.12,-24.5 142.38,-24.5 142.38,-24.5 148.38,-24.5 154.38,-30.5 154.38,-36.5 154.38,-36.5 154.38,-48.5 154.38,-48.5 154.38,-54.5 148.38,-60.5 142.38,-60.5"/>
<text xml:space="preserve" text-anchor="middle" x="88.25" y="-37.45" font-family="Times New Roman,serif" font-size="14.00">CONTAINER_SPEC</text>
</g>
<!-- CONTAINER_STATE -->
<g id="node2" class="node">
<title>CONTAINER_STATE</title>
<path fill="none" stroke="black" d="M146.12,-132.5C146.12,-132.5 30.38,-132.5 30.38,-132.5 24.38,-132.5 18.38,-126.5 18.38,-120.5 18.38,-120.5 18.38,-108.5 18.38,-108.5 18.38,-102.5 24.38,-96.5 30.38,-96.5 30.38,-96.5 146.12,-96.5 146.12,-96.5 152.12,-96.5 158.12,-102.5 158.12,-108.5 158.12,-108.5 158.12,-120.5 158.12,-120.5 158.12,-126.5 152.12,-132.5 146.12,-132.5"/>
<text xml:space="preserve" text-anchor="middle" x="88.25" y="-109.45" font-family="Times New Roman,serif" font-size="14.00">CONTAINER_STATE</text>
</g>
<!-- DOCKER_CLIENT -->
<g id="node3" class="node">
<title>DOCKER_CLIENT</title>
<path fill="none" stroke="black" d="M139.38,-204.5C139.38,-204.5 37.12,-204.5 37.12,-204.5 31.12,-204.5 25.12,-198.5 25.12,-192.5 25.12,-192.5 25.12,-180.5 25.12,-180.5 25.12,-174.5 31.12,-168.5 37.12,-168.5 37.12,-168.5 139.38,-168.5 139.38,-168.5 145.38,-168.5 151.38,-174.5 151.38,-180.5 151.38,-180.5 151.38,-192.5 151.38,-192.5 151.38,-198.5 145.38,-204.5 139.38,-204.5"/>
<text xml:space="preserve" text-anchor="middle" x="88.25" y="-181.45" font-family="Times New Roman,serif" font-size="14.00">DOCKER_CLIENT</text>
</g>
<!-- DOCKER_CONTAINER -->
<g id="node4" class="node">
<title>DOCKER_CONTAINER</title>
<path fill="none" stroke="black" d="M154,-564.5C154,-564.5 22.5,-564.5 22.5,-564.5 16.5,-564.5 10.5,-558.5 10.5,-552.5 10.5,-552.5 10.5,-540.5 10.5,-540.5 10.5,-534.5 16.5,-528.5 22.5,-528.5 22.5,-528.5 154,-528.5 154,-528.5 160,-528.5 166,-534.5 166,-540.5 166,-540.5 166,-552.5 166,-552.5 166,-558.5 160,-564.5 154,-564.5"/>
<text xml:space="preserve" text-anchor="middle" x="88.25" y="-541.45" font-family="Times New Roman,serif" font-size="14.00">DOCKER_CONTAINER</text>
</g>
<!-- ANY -->
<g id="node5" class="node">
<title>ANY</title>
<path fill="none" stroke="black" d="M359.62,-420.5C359.62,-420.5 329.62,-420.5 329.62,-420.5 323.62,-420.5 317.62,-414.5 317.62,-408.5 317.62,-408.5 317.62,-396.5 317.62,-396.5 317.62,-390.5 323.62,-384.5 329.62,-384.5 329.62,-384.5 359.62,-384.5 359.62,-384.5 365.62,-384.5 371.62,-390.5 371.62,-396.5 371.62,-396.5 371.62,-408.5 371.62,-408.5 371.62,-414.5 365.62,-420.5 359.62,-420.5"/>
<text xml:space="preserve" text-anchor="middle" x="344.62" y="-397.45" font-family="Times New Roman,serif" font-size="14.00">ANY</text>
</g>
<!-- DOCKER_CONTAINER&#45;&gt;ANY -->
<g id="edge1" class="edge">
<title>DOCKER_CONTAINER&#45;&gt;ANY</title>
<path fill="none" stroke="black" d="M153.75,-528.01C153.75,-491.04 153.75,-411.5 153.75,-411.5 153.75,-411.5 305.76,-411.5 305.76,-411.5"/>
<polygon fill="none" stroke="black" points="305.76,-415 315.76,-411.5 305.76,-408 305.76,-415"/>
</g>
<!-- DOCKER_ERROR -->
<g id="node6" class="node">
<title>DOCKER_ERROR</title>
<path fill="none" stroke="black" d="M137.88,-492.5C137.88,-492.5 38.62,-492.5 38.62,-492.5 32.62,-492.5 26.62,-486.5 26.62,-480.5 26.62,-480.5 26.62,-468.5 26.62,-468.5 26.62,-462.5 32.62,-456.5 38.62,-456.5 38.62,-456.5 137.88,-456.5 137.88,-456.5 143.88,-456.5 149.88,-462.5 149.88,-468.5 149.88,-468.5 149.88,-480.5 149.88,-480.5 149.88,-486.5 143.88,-492.5 137.88,-492.5"/>
<text xml:space="preserve" text-anchor="middle" x="88.25" y="-469.45" font-family="Times New Roman,serif" font-size="14.00">DOCKER_ERROR</text>
</g>
<!-- DOCKER_ERROR&#45;&gt;ANY -->
<g id="edge2" class="edge">
<title>DOCKER_ERROR&#45;&gt;ANY</title>
<path fill="none" stroke="black" d="M150.34,-474.5C226.25,-474.5 344.75,-474.5 344.75,-474.5 344.75,-474.5 344.75,-432.18 344.75,-432.18"/>
<polygon fill="none" stroke="black" points="348.25,-432.18 344.75,-422.18 341.25,-432.18 348.25,-432.18"/>
</g>
<!-- DOCKER_IMAGE -->
<g id="node7" class="node">
<title>DOCKER_IMAGE</title>
<path fill="none" stroke="black" d="M137.88,-420.5C137.88,-420.5 38.62,-420.5 38.62,-420.5 32.62,-420.5 26.62,-414.5 26.62,-408.5 26.62,-408.5 26.62,-396.5 26.62,-396.5 26.62,-390.5 32.62,-384.5 38.62,-384.5 38.62,-384.5 137.88,-384.5 137.88,-384.5 143.88,-384.5 149.88,-390.5 149.88,-396.5 149.88,-396.5 149.88,-408.5 149.88,-408.5 149.88,-414.5 143.88,-420.5 137.88,-420.5"/>
<text xml:space="preserve" text-anchor="middle" x="88.25" y="-397.45" font-family="Times New Roman,serif" font-size="14.00">DOCKER_IMAGE</text>
</g>
<!-- DOCKER_IMAGE&#45;&gt;ANY -->
<g id="edge3" class="edge">
<title>DOCKER_IMAGE&#45;&gt;ANY</title>
<path fill="none" stroke="black" d="M150.31,-402.5C150.31,-402.5 305.68,-402.5 305.68,-402.5"/>
<polygon fill="none" stroke="black" points="305.68,-406 315.68,-402.5 305.68,-399 305.68,-406"/>
</g>
<!-- DOCKER_NETWORK -->
<g id="node8" class="node">
<title>DOCKER_NETWORK</title>
<path fill="none" stroke="black" d="M149.5,-348.5C149.5,-348.5 27,-348.5 27,-348.5 21,-348.5 15,-342.5 15,-336.5 15,-336.5 15,-324.5 15,-324.5 15,-318.5 21,-312.5 27,-312.5 27,-312.5 149.5,-312.5 149.5,-312.5 155.5,-312.5 161.5,-318.5 161.5,-324.5 161.5,-324.5 161.5,-336.5 161.5,-336.5 161.5,-342.5 155.5,-348.5 149.5,-348.5"/>
<text xml:space="preserve" text-anchor="middle" x="88.25" y="-325.45" font-family="Times New Roman,serif" font-size="14.00">DOCKER_NETWORK</text>
</g>
<!-- DOCKER_NETWORK&#45;&gt;ANY -->
<g id="edge4" class="edge">
<title>DOCKER_NETWORK&#45;&gt;ANY</title>
<path fill="none" stroke="black" d="M157.75,-348.72C157.75,-367.33 157.75,-393.5 157.75,-393.5 157.75,-393.5 305.94,-393.5 305.94,-393.5"/>
<polygon fill="none" stroke="black" points="305.94,-397 315.94,-393.5 305.94,-390 305.94,-397"/>
</g>
<!-- DOCKER_VOLUME -->
<g id="node9" class="node">
<title>DOCKER_VOLUME</title>
<path fill="none" stroke="black" d="M144.62,-276.5C144.62,-276.5 31.87,-276.5 31.87,-276.5 25.88,-276.5 19.88,-270.5 19.88,-264.5 19.88,-264.5 19.88,-252.5 19.88,-252.5 19.88,-246.5 25.88,-240.5 31.88,-240.5 31.88,-240.5 144.62,-240.5 144.62,-240.5 150.62,-240.5 156.62,-246.5 156.62,-252.5 156.62,-252.5 156.62,-264.5 156.62,-264.5 156.62,-270.5 150.62,-276.5 144.62,-276.5"/>
<text xml:space="preserve" text-anchor="middle" x="88.25" y="-253.45" font-family="Times New Roman,serif" font-size="14.00">DOCKER_VOLUME</text>
</g>
<!-- DOCKER_VOLUME&#45;&gt;ANY -->
<g id="edge5" class="edge">
<title>DOCKER_VOLUME&#45;&gt;ANY</title>
<path fill="none" stroke="black" d="M156.99,-258.5C232.97,-258.5 344.75,-258.5 344.75,-258.5 344.75,-258.5 344.75,-372.75 344.75,-372.75"/>
<polygon fill="none" stroke="black" points="341.25,-372.75 344.75,-382.75 348.25,-372.75 341.25,-372.75"/>
</g>
<!-- LOG_STREAM_OPTIONS -->
<g id="node10" class="node">
<title>LOG_STREAM_OPTIONS</title>
<path fill="none" stroke="black" d="M161.12,-636.5C161.12,-636.5 15.38,-636.5 15.38,-636.5 9.38,-636.5 3.38,-630.5 3.38,-624.5 3.38,-624.5 3.38,-612.5 3.38,-612.5 3.38,-606.5 9.38,-600.5 15.38,-600.5 15.38,-600.5 161.12,-600.5 161.12,-600.5 167.12,-600.5 173.12,-606.5 173.12,-612.5 173.12,-612.5 173.12,-624.5 173.12,-624.5 173.12,-630.5 167.12,-636.5 161.12,-636.5"/>
<text xml:space="preserve" text-anchor="middle" x="88.25" y="-613.45" font-family="Times New Roman,serif" font-size="14.00">LOG_STREAM_OPTIONS</text>
</g>
<!-- SIMPLE_DOCKER_QUICK -->
<g id="node11" class="node">
<title>SIMPLE_DOCKER_QUICK</title>
<path fill="none" stroke="black" d="M164.5,-708.5C164.5,-708.5 12,-708.5 12,-708.5 6,-708.5 0,-702.5 0,-696.5 0,-696.5 0,-684.5 0,-684.5 0,-678.5 6,-672.5 12,-672.5 12,-672.5 164.5,-672.5 164.5,-672.5 170.5,-672.5 176.5,-678.5 176.5,-684.5 176.5,-684.5 176.5,-696.5 176.5,-696.5 176.5,-702.5 170.5,-708.5 164.5,-708.5"/>
<text xml:space="preserve" text-anchor="middle" x="88.25" y="-685.45" font-family="Times New Roman,serif" font-size="14.00">SIMPLE_DOCKER_QUICK</text>
</g>
<!-- LIB_TESTS -->
<g id="node12" class="node">
<title>LIB_TESTS</title>
<path fill="none" stroke="black" d="M118.38,-780.5C118.38,-780.5 58.12,-780.5 58.12,-780.5 52.12,-780.5 46.12,-774.5 46.12,-768.5 46.12,-768.5 46.12,-756.5 46.12,-756.5 46.12,-750.5 52.12,-744.5 58.12,-744.5 58.12,-744.5 118.38,-744.5 118.38,-744.5 124.38,-744.5 130.38,-750.5 130.38,-756.5 130.38,-756.5 130.38,-768.5 130.38,-768.5 130.38,-774.5 124.38,-780.5 118.38,-780.5"/>
<text xml:space="preserve" text-anchor="middle" x="88.25" y="-757.45" font-family="Times New Roman,serif" font-size="14.00">LIB_TESTS</text>
</g>
<!-- TEST_SET_BASE -->
<g id="node13" class="node">
<title>TEST_SET_BASE</title>
<path fill="none" stroke="black" d="M392.75,-780.5C392.75,-780.5 296.5,-780.5 296.5,-780.5 290.5,-780.5 284.5,-774.5 284.5,-768.5 284.5,-768.5 284.5,-756.5 284.5,-756.5 284.5,-750.5 290.5,-744.5 296.5,-744.5 296.5,-744.5 392.75,-744.5 392.75,-744.5 398.75,-744.5 404.75,-750.5 404.75,-756.5 404.75,-756.5 404.75,-768.5 404.75,-768.5 404.75,-774.5 398.75,-780.5 392.75,-780.5"/>
<text xml:space="preserve" text-anchor="middle" x="344.62" y="-757.45" font-family="Times New Roman,serif" font-size="14.00">TEST_SET_BASE</text>
</g>
<!-- LIB_TESTS&#45;&gt;TEST_SET_BASE -->
<g id="edge6" class="edge">
<title>LIB_TESTS&#45;&gt;TEST_SET_BASE</title>
<path fill="none" stroke="black" d="M130.87,-762.5C130.87,-762.5 272.62,-762.5 272.62,-762.5"/>
<polygon fill="none" stroke="black" points="272.62,-766 282.62,-762.5 272.62,-759 272.62,-766"/>
</g>
<!-- TEST_APP -->
<g id="node14" class="node">
<title>TEST_APP</title>
<path fill="none" stroke="black" d="M116.12,-852.5C116.12,-852.5 60.38,-852.5 60.38,-852.5 54.38,-852.5 48.38,-846.5 48.38,-840.5 48.38,-840.5 48.38,-828.5 48.38,-828.5 48.38,-822.5 54.38,-816.5 60.38,-816.5 60.38,-816.5 116.12,-816.5 116.12,-816.5 122.12,-816.5 128.12,-822.5 128.12,-828.5 128.12,-828.5 128.12,-840.5 128.12,-840.5 128.12,-846.5 122.12,-852.5 116.12,-852.5"/>
<text xml:space="preserve" text-anchor="middle" x="88.25" y="-829.45" font-family="Times New Roman,serif" font-size="14.00">TEST_APP</text>
</g>
</g>
</svg>
