<?xml version="1.0" encoding="UTF-8" standalone="no"?>
<!DOCTYPE svg PUBLIC "-//W3C//DTD SVG 1.1//EN"
 "http://www.w3.org/Graphics/SVG/1.1/DTD/svg11.dtd">
<!-- Generated by graphviz version 14.1.1 (20251213.1925)
 -->
<!-- Title: Dependencies Pages: 1 -->
<svg width="348pt" height="645pt"
 viewBox="0.00 0.00 348.00 645.00" xmlns="http://www.w3.org/2000/svg" xmlns:xlink="http://www.w3.org/1999/xlink">
<g id="graph0" class="graph" transform="scale(1 1) rotate(0) translate(4 640.5)">
<title>Dependencies</title>
<polygon fill="white" stroke="none" points="-4,4 -4,-640.5 343.5,-640.5 343.5,4 -4,4"/>
<text xml:space="preserve" text-anchor="middle" x="169.75" y="-7.2" font-family="Times New Roman,serif" font-size="14.00">simple_docker &#45; Dependencies</text>
<!-- simple_docker -->
<g id="node1" class="node">
<title>simple_docker</title>
<polygon fill="lightblue" stroke="black" points="96.25,-348.5 0,-348.5 0,-312.5 96.25,-312.5 96.25,-348.5"/>
<text xml:space="preserve" text-anchor="middle" x="48.12" y="-325.45" font-family="Times New Roman,serif" font-size="14.00">simple_docker</text>
</g>
<!-- simple_ipc -->
<g id="node2" class="node">
<title>simple_ipc</title>
<polygon fill="lightblue" stroke="black" points="327.88,-636.5 251.88,-636.5 251.88,-600.5 327.88,-600.5 327.88,-636.5"/>
<text xml:space="preserve" text-anchor="middle" x="289.88" y="-613.45" font-family="Times New Roman,serif" font-size="14.00">simple_ipc</text>
</g>
<!-- simple_docker&#45;&gt;simple_ipc -->
<g id="edge1" class="edge">
<title>simple_docker&#45;&gt;simple_ipc</title>
<path fill="none" stroke="black" stroke-dasharray="5,2" d="M19.5,-348.95C19.5,-412.52 19.5,-618.5 19.5,-618.5 19.5,-618.5 239.91,-618.5 239.91,-618.5"/>
<polygon fill="black" stroke="black" points="239.91,-622 249.91,-618.5 239.91,-615 239.91,-622"/>
</g>
<!-- simple_json -->
<g id="node3" class="node">
<title>simple_json</title>
<polygon fill="lightblue" stroke="black" points="330.88,-564.5 248.88,-564.5 248.88,-528.5 330.88,-528.5 330.88,-564.5"/>
<text xml:space="preserve" text-anchor="middle" x="289.88" y="-541.45" font-family="Times New Roman,serif" font-size="14.00">simple_json</text>
</g>
<!-- simple_docker&#45;&gt;simple_json -->
<g id="edge2" class="edge">
<title>simple_docker&#45;&gt;simple_json</title>
<path fill="none" stroke="black" stroke-dasharray="5,2" d="M38.5,-348.92C38.5,-401.15 38.5,-546.5 38.5,-546.5 38.5,-546.5 237.13,-546.5 237.13,-546.5"/>
<polygon fill="black" stroke="black" points="237.13,-550 247.13,-546.5 237.13,-543 237.13,-550"/>
</g>
<!-- simple_file -->
<g id="node4" class="node">
<title>simple_file</title>
<polygon fill="lightblue" stroke="black" points="328.62,-492.5 251.12,-492.5 251.12,-456.5 328.62,-456.5 328.62,-492.5"/>
<text xml:space="preserve" text-anchor="middle" x="289.88" y="-469.45" font-family="Times New Roman,serif" font-size="14.00">simple_file</text>
</g>
<!-- simple_docker&#45;&gt;simple_file -->
<g id="edge3" class="edge">
<title>simple_docker&#45;&gt;simple_file</title>
<path fill="none" stroke="black" stroke-dasharray="5,2" d="M57.5,-348.74C57.5,-387.49 57.5,-474.5 57.5,-474.5 57.5,-474.5 239.2,-474.5 239.2,-474.5"/>
<polygon fill="black" stroke="black" points="239.21,-478 249.2,-474.5 239.2,-471 239.21,-478"/>
</g>
<!-- simple_logger -->
<g id="node5" class="node">
<title>simple_logger</title>
<polygon fill="lightblue" stroke="black" points="336.88,-420.5 242.88,-420.5 242.88,-384.5 336.88,-384.5 336.88,-420.5"/>
<text xml:space="preserve" text-anchor="middle" x="289.88" y="-397.45" font-family="Times New Roman,serif" font-size="14.00">simple_logger</text>
</g>
<!-- simple_docker&#45;&gt;simple_logger -->
<g id="edge4" class="edge">
<title>simple_docker&#45;&gt;simple_logger</title>
<path fill="none" stroke="black" stroke-dasharray="5,2" d="M76.5,-348.67C76.5,-370 76.5,-402.5 76.5,-402.5 76.5,-402.5 231.01,-402.5 231.01,-402.5"/>
<polygon fill="black" stroke="black" points="231.01,-406 241.01,-402.5 231.01,-399 231.01,-406"/>
</g>
<!-- simple_archive -->
<g id="node6" class="node">
<title>simple_archive</title>
<polygon fill="lightblue" stroke="black" points="339.5,-348.5 240.25,-348.5 240.25,-312.5 339.5,-312.5 339.5,-348.5"/>
<text xml:space="preserve" text-anchor="middle" x="289.88" y="-325.45" font-family="Times New Roman,serif" font-size="14.00">simple_archive</text>
</g>
<!-- simple_docker&#45;&gt;simple_archive -->
<g id="edge5" class="edge">
<title>simple_docker&#45;&gt;simple_archive</title>
<path fill="none" stroke="black" stroke-dasharray="5,2" d="M96.47,-330.5C96.47,-330.5 228.44,-330.5 228.44,-330.5"/>
<polygon fill="black" stroke="black" points="228.44,-334 238.44,-330.5 228.44,-327 228.44,-334"/>
</g>
<!-- simple_testing -->
<g id="node7" class="node">
<title>simple_testing</title>
<polygon fill="lightblue" stroke="black" points="337.62,-276.5 242.12,-276.5 242.12,-240.5 337.62,-240.5 337.62,-276.5"/>
<text xml:space="preserve" text-anchor="middle" x="289.88" y="-253.45" font-family="Times New Roman,serif" font-size="14.00">simple_testing</text>
</g>
<!-- simple_docker&#45;&gt;simple_testing -->
<g id="edge6" class="edge">
<title>simple_docker&#45;&gt;simple_testing</title>
<path fill="none" stroke="black" stroke-dasharray="5,2" d="M76.5,-312.33C76.5,-291 76.5,-258.5 76.5,-258.5 76.5,-258.5 230.21,-258.5 230.21,-258.5"/>
<polygon fill="black" stroke="black" points="230.21,-262 240.21,-258.5 230.21,-255 230.21,-262"/>
</g>
<!-- base -->
<g id="node8" class="node">
<title>base</title>
<polygon fill="lightgray" stroke="black" points="316.88,-204.5 262.88,-204.5 262.88,-168.5 316.88,-168.5 316.88,-204.5"/>
<text xml:space="preserve" text-anchor="middle" x="289.88" y="-181.45" font-family="Times New Roman,serif" font-size="14.00">base</text>
</g>
<!-- simple_docker&#45;&gt;base -->
<g id="edge7" class="edge">
<title>simple_docker&#45;&gt;base</title>
<path fill="none" stroke="black" stroke-dasharray="5,2" d="M57.5,-312.26C57.5,-273.51 57.5,-186.5 57.5,-186.5 57.5,-186.5 251.25,-186.5 251.25,-186.5"/>
<polygon fill="black" stroke="black" points="251.25,-190 261.25,-186.5 251.25,-183 251.25,-190"/>
</g>
<!-- uuid -->
<g id="node9" class="node">
<title>uuid</title>
<polygon fill="lightgray" stroke="black" points="316.88,-132.5 262.88,-132.5 262.88,-96.5 316.88,-96.5 316.88,-132.5"/>
<text xml:space="preserve" text-anchor="middle" x="289.88" y="-109.45" font-family="Times New Roman,serif" font-size="14.00">uuid</text>
</g>
<!-- simple_docker&#45;&gt;uuid -->
<g id="edge8" class="edge">
<title>simple_docker&#45;&gt;uuid</title>
<path fill="none" stroke="black" stroke-dasharray="5,2" d="M38.5,-312.08C38.5,-259.85 38.5,-114.5 38.5,-114.5 38.5,-114.5 250.98,-114.5 250.98,-114.5"/>
<polygon fill="black" stroke="black" points="250.98,-118 260.98,-114.5 250.98,-111 250.98,-118"/>
</g>
<!-- testing -->
<g id="node10" class="node">
<title>testing</title>
<polygon fill="lightgray" stroke="black" points="316.88,-60.5 262.88,-60.5 262.88,-24.5 316.88,-24.5 316.88,-60.5"/>
<text xml:space="preserve" text-anchor="middle" x="289.88" y="-37.45" font-family="Times New Roman,serif" font-size="14.00">testing</text>
</g>
<!-- simple_docker&#45;&gt;testing -->
<g id="edge9" class="edge">
<title>simple_docker&#45;&gt;testing</title>
<path fill="none" stroke="black" stroke-dasharray="5,2" d="M19.5,-312.05C19.5,-248.48 19.5,-42.5 19.5,-42.5 19.5,-42.5 250.95,-42.5 250.95,-42.5"/>
<polygon fill="black" stroke="black" points="250.95,-46 260.95,-42.5 250.95,-39 250.95,-46"/>
</g>
</g>
</svg>
